<svg width="428" height="933" viewBox="0 0 428 933" fill="none" xmlns="http://www.w3.org/2000/svg">
<rect width="428" height="933" fill="#1E1E1E"/>
<g clip-path="url(#clip0_0_1)" filter="url(#filter0_f_0_1)">
<rect width="412" height="917" transform="translate(8 8)" fill="#111827"/>
<rect x="8" y="845" width="412" height="80" fill="#1F2937"/>
<rect x="168" y="844" width="80" height="81" fill="#5B21B6"/>
<line x1="330.5" y1="845" x2="330.5" y2="925" stroke="#353535"/>
<line x1="168.5" y1="845" x2="168.5" y2="925" stroke="#353535"/>
<line x1="248.5" y1="845" x2="248.5" y2="925" stroke="#353535"/>
<line x1="88.5" y1="845" x2="88.5" y2="925" stroke="#353535"/>
<path d="M32 879L50 865L68 879V901C68 902.061 67.5786 903.078 66.8284 903.828C66.0783 904.579 65.0609 905 64 905H36C34.9391 905 33.9217 904.579 33.1716 903.828C32.4214 903.078 32 902.061 32 901V879Z" stroke="#6B7280" stroke-width="2" stroke-linecap="round" stroke-linejoin="round"/>
<path d="M44 905V885H56V905" stroke="#6B7280" stroke-width="2" stroke-linecap="round" stroke-linejoin="round"/>
<path d="M194 895H192C190.939 895 189.922 894.579 189.172 893.828C188.421 893.078 188 892.061 188 891V871C188 869.939 188.421 868.922 189.172 868.172C189.922 867.421 190.939 867 192 867H224C225.061 867 226.078 867.421 226.828 868.172C227.579 868.922 228 869.939 228 871V891C228 892.061 227.579 893.078 226.828 893.828C226.078 894.579 225.061 895 224 895H222" stroke="#F3F4F6" stroke-width="2" stroke-linecap="round" stroke-linejoin="round"/>
<path d="M208 891L218 903H198L208 891Z" stroke="#F3F4F6" stroke-width="2" stroke-linecap="round" stroke-linejoin="round"/>
<path d="M386 903V899C386 896.878 385.157 894.843 383.657 893.343C382.157 891.843 380.122 891 378 891H362C359.878 891 357.843 891.843 356.343 893.343C354.843 894.843 354 896.878 354 899V903" stroke="#6B7280" stroke-width="2" stroke-linecap="round" stroke-linejoin="round"/>
<path d="M370 883C374.418 883 378 879.418 378 875C378 870.582 374.418 867 370 867C365.582 867 362 870.582 362 875C362 879.418 365.582 883 370 883Z" stroke="#6B7280" stroke-width="2" stroke-linecap="round" stroke-linejoin="round"/>
<path d="M148 887.16V889C147.998 893.313 146.601 897.509 144.019 900.964C141.436 904.418 137.807 906.945 133.671 908.168C129.535 909.391 125.115 909.244 121.069 907.749C117.023 906.255 113.569 903.492 111.222 899.874C108.875 896.256 107.76 891.976 108.043 887.673C108.327 883.369 109.994 879.273 112.797 875.994C115.599 872.716 119.386 870.431 123.592 869.48C127.799 868.53 132.201 868.965 136.14 870.72" stroke="#6B7280" stroke-width="2" stroke-linecap="round" stroke-linejoin="round"/>
<path d="M148 873L128 893.02L122 887.02" stroke="#6B7280" stroke-width="2" stroke-linecap="round" stroke-linejoin="round"/>
<ellipse cx="369" cy="62.5" rx="39" ry="38.5" fill="#D9D9D9"/>
<path d="M53.5993 79.288C50.8873 79.288 48.7513 78.64 47.1913 77.344C45.6553 76.048 44.7313 74.08 44.4193 71.44L46.3633 71.188C46.7473 73.42 47.5033 75.016 48.6313 75.976C49.7833 76.936 51.4873 77.416 53.7433 77.416C55.6153 77.416 57.0913 76.972 58.1713 76.084C59.2513 75.196 59.7913 73.984 59.7913 72.448C59.7913 71.416 59.5633 70.6 59.1073 70C58.6753 69.376 57.9913 68.884 57.0553 68.524C56.1433 68.14 54.9793 67.792 53.5633 67.48C52.0753 67.168 50.7553 66.772 49.6033 66.292C48.4753 65.812 47.5873 65.104 46.9393 64.168C46.3153 63.232 46.0033 61.948 46.0033 60.316C46.0033 58.924 46.3393 57.688 47.0113 56.608C47.6833 55.504 48.6073 54.64 49.7833 54.016C50.9833 53.392 52.3393 53.08 53.8513 53.08C56.0113 53.08 57.7633 53.668 59.1073 54.844C60.4753 55.996 61.3033 57.664 61.5913 59.848L59.7553 60.136C59.4433 58.336 58.8073 57.016 57.8473 56.176C56.8873 55.336 55.5433 54.916 53.8153 54.916C52.0873 54.916 50.6953 55.408 49.6393 56.392C48.5833 57.352 48.0553 58.636 48.0553 60.244C48.0553 61.396 48.2833 62.32 48.7393 63.016C49.2193 63.712 49.9153 64.264 50.8273 64.672C51.7633 65.08 52.9033 65.416 54.2473 65.68C55.9513 66.04 57.3553 66.472 58.4593 66.976C59.5873 67.48 60.4273 68.164 60.9793 69.028C61.5553 69.868 61.8433 71.008 61.8433 72.448C61.8433 73.816 61.4953 75.016 60.7993 76.048C60.1033 77.056 59.1313 77.848 57.8833 78.424C56.6593 79 55.2313 79.288 53.5993 79.288ZM71.7464 79.288C69.8024 79.288 68.3504 78.76 67.3904 77.704C66.4544 76.648 65.9984 75.244 66.0224 73.492L66.1304 62.872H62.9264V61.18H66.1664L66.2024 57.436H68.1464L68.1104 61.18H74.4824V62.872H68.1104L68.0024 73.348C67.9784 74.62 68.2784 75.628 68.9024 76.372C69.5264 77.116 70.4984 77.488 71.8184 77.488C72.3944 77.488 72.9224 77.416 73.4024 77.272C73.8824 77.104 74.3744 76.828 74.8784 76.444L75.5624 77.992C75.1064 78.448 74.5304 78.784 73.8344 79C73.1624 79.192 72.4664 79.288 71.7464 79.288ZM85.5974 79.288C82.9094 79.288 80.8094 78.496 79.2974 76.912C77.7854 75.328 77.0294 73.132 77.0294 70.324C77.0294 68.476 77.3894 66.844 78.1094 65.428C78.8294 64.012 79.8134 62.896 81.0614 62.08C82.3094 61.264 83.7374 60.856 85.3454 60.856C86.8814 60.856 88.2134 61.216 89.3414 61.936C90.4694 62.656 91.2974 63.748 91.8254 65.212C92.3774 66.676 92.5334 68.548 92.2934 70.828H79.0454C79.0934 72.988 79.6934 74.632 80.8454 75.76C81.9974 76.888 83.6174 77.452 85.7054 77.452C86.7854 77.452 87.7814 77.236 88.6934 76.804C89.6294 76.372 90.4094 75.676 91.0334 74.716L92.3654 75.832C91.6454 76.96 90.7094 77.824 89.5574 78.424C88.4294 79 87.1094 79.288 85.5974 79.288ZM85.3814 62.512C84.2054 62.512 83.1614 62.812 82.2494 63.412C81.3374 63.988 80.6054 64.78 80.0534 65.788C79.5014 66.796 79.1774 67.924 79.0814 69.172H90.5294C90.6734 66.796 90.2414 65.092 89.2334 64.06C88.2254 63.028 86.9414 62.512 85.3814 62.512ZM120.968 61.18H122.984L116.216 79H114.02L109.052 63.736L103.148 79H100.952L95.2997 61.18H97.3877L102.14 76.804L108.116 61.18H110.096L115.136 76.912L120.968 61.18ZM140.427 61.18V79H138.411L138.555 74.176C137.931 75.712 137.019 76.948 135.819 77.884C134.643 78.82 133.299 79.288 131.787 79.288C130.323 79.288 129.075 78.94 128.043 78.244C127.035 77.524 126.267 76.54 125.739 75.292C125.211 74.02 124.947 72.568 124.947 70.936C124.947 68.944 125.283 67.192 125.955 65.68C126.651 64.168 127.623 62.992 128.871 62.152C130.143 61.288 131.619 60.856 133.299 60.856C134.523 60.856 135.603 61.156 136.539 61.756C137.475 62.332 138.147 63.076 138.555 63.988L138.915 61.18H140.427ZM133.335 62.656C131.415 62.656 129.879 63.4 128.727 64.888C127.575 66.352 126.999 68.308 126.999 70.756C126.999 72.844 127.443 74.488 128.331 75.688C129.219 76.864 130.443 77.452 132.003 77.452C133.251 77.452 134.367 77.08 135.351 76.336C136.335 75.568 137.103 74.524 137.655 73.204C138.207 71.86 138.483 70.348 138.483 68.668C138.483 66.796 138.027 65.332 137.115 64.276C136.203 63.196 134.943 62.656 133.335 62.656ZM155.705 63.052C155.441 62.98 155.189 62.932 154.949 62.908C154.733 62.86 154.481 62.836 154.193 62.836C152.105 62.836 150.557 64.132 149.549 66.724C148.565 69.316 148.073 73.408 148.073 79H146.165V67.588L146.129 61.18H148.109L147.965 68.2C148.517 65.512 149.369 63.616 150.521 62.512C151.673 61.408 152.933 60.856 154.301 60.856C154.613 60.856 154.913 60.88 155.201 60.928C155.513 60.952 155.765 61.012 155.957 61.108L155.705 63.052ZM172.877 52.36V79H170.861L171.005 74.176C170.381 75.712 169.469 76.948 168.269 77.884C167.093 78.82 165.749 79.288 164.237 79.288C162.773 79.288 161.525 78.94 160.493 78.244C159.485 77.524 158.717 76.54 158.189 75.292C157.661 74.02 157.397 72.568 157.397 70.936C157.397 68.944 157.733 67.192 158.405 65.68C159.101 64.168 160.073 62.992 161.321 62.152C162.593 61.288 164.069 60.856 165.749 60.856C166.853 60.856 167.873 61.12 168.809 61.648C169.745 62.152 170.453 62.896 170.933 63.88L170.897 61.18V52.36H172.877ZM165.785 62.656C163.865 62.656 162.329 63.4 161.177 64.888C160.025 66.352 159.449 68.308 159.449 70.756C159.449 72.844 159.893 74.488 160.781 75.688C161.669 76.864 162.893 77.452 164.453 77.452C165.701 77.452 166.817 77.08 167.801 76.336C168.785 75.568 169.553 74.524 170.105 73.204C170.657 71.86 170.933 70.348 170.933 68.668C170.933 66.796 170.477 65.332 169.565 64.276C168.653 63.196 167.393 62.656 165.785 62.656ZM182.646 79.288C181.23 79.288 180.198 78.904 179.55 78.136C178.902 77.368 178.578 76.372 178.578 75.148V52.36H180.522V74.824C180.522 75.664 180.702 76.324 181.062 76.804C181.422 77.284 182.022 77.524 182.862 77.524C183.246 77.524 183.606 77.464 183.942 77.344C184.278 77.224 184.554 77.092 184.77 76.948L185.346 78.46C185.01 78.7 184.59 78.892 184.086 79.036C183.606 79.204 183.126 79.288 182.646 79.288ZM193.374 86.56C192.366 86.56 191.346 86.452 190.314 86.236C189.306 86.044 188.442 85.744 187.722 85.336L188.334 83.536C189.03 83.896 189.834 84.184 190.746 84.4C191.682 84.64 192.594 84.76 193.482 84.76C195.81 84.76 197.466 84.16 198.45 82.96C199.458 81.784 199.986 79.852 200.034 77.164L200.106 71.944C199.482 74.416 198.534 76.216 197.262 77.344C195.99 78.448 194.502 79 192.798 79C191.07 79 189.726 78.412 188.766 77.236C187.83 76.06 187.374 74.392 187.398 72.232L187.506 61.18H189.486L189.342 71.908C189.342 73.612 189.642 74.92 190.242 75.832C190.866 76.72 191.862 77.164 193.23 77.164C194.574 77.164 195.75 76.66 196.758 75.652C197.79 74.644 198.582 72.976 199.134 70.648C199.71 68.296 199.998 65.14 199.998 61.18H201.87V76.876C201.87 80.212 201.162 82.66 199.746 84.22C198.354 85.78 196.23 86.56 193.374 86.56ZM215.779 79V53.44H217.867V65.536L230.107 53.44H232.699L219.811 66.076C220.675 66.484 221.467 67.24 222.187 68.344L226.579 74.824C227.299 75.88 227.911 76.576 228.415 76.912C228.919 77.248 229.543 77.416 230.287 77.416C230.935 77.416 231.547 77.236 232.123 76.876L232.591 78.424C231.943 78.928 231.079 79.18 229.999 79.18C229.063 79.18 228.211 78.952 227.443 78.496C226.675 78.04 225.907 77.248 225.139 76.12L220.063 68.704C219.487 67.864 218.755 67.36 217.867 67.192V79H215.779ZM241.761 79.288C239.073 79.288 236.973 78.496 235.461 76.912C233.949 75.328 233.193 73.132 233.193 70.324C233.193 68.476 233.553 66.844 234.273 65.428C234.993 64.012 235.977 62.896 237.225 62.08C238.473 61.264 239.901 60.856 241.509 60.856C243.045 60.856 244.377 61.216 245.505 61.936C246.633 62.656 247.461 63.748 247.989 65.212C248.541 66.676 248.697 68.548 248.457 70.828H235.209C235.257 72.988 235.857 74.632 237.009 75.76C238.161 76.888 239.781 77.452 241.869 77.452C242.949 77.452 243.945 77.236 244.857 76.804C245.793 76.372 246.573 75.676 247.197 74.716L248.529 75.832C247.809 76.96 246.873 77.824 245.721 78.424C244.593 79 243.273 79.288 241.761 79.288ZM241.545 62.512C240.369 62.512 239.325 62.812 238.413 63.412C237.501 63.988 236.769 64.78 236.217 65.788C235.665 66.796 235.341 67.924 235.245 69.172H246.693C246.837 66.796 246.405 65.092 245.397 64.06C244.389 63.028 243.105 62.512 241.545 62.512ZM253.145 79V61.18H255.125L254.909 68.164C255.509 65.716 256.445 63.892 257.717 62.692C258.989 61.468 260.513 60.856 262.289 60.856C264.065 60.856 265.421 61.468 266.357 62.692C267.317 63.916 267.785 65.692 267.761 68.02L267.689 79H265.745L265.817 68.308C265.841 66.436 265.529 65.032 264.881 64.096C264.233 63.16 263.225 62.692 261.857 62.692C260.537 62.692 259.361 63.208 258.329 64.24C257.321 65.272 256.517 66.976 255.917 69.352C255.341 71.728 255.053 74.944 255.053 79H253.145ZM279.05 86.56C278.042 86.56 277.022 86.452 275.99 86.236C274.982 86.044 274.118 85.744 273.398 85.336L274.01 83.536C274.706 83.896 275.51 84.184 276.422 84.4C277.358 84.64 278.27 84.76 279.158 84.76C281.486 84.76 283.142 84.16 284.126 82.96C285.134 81.784 285.662 79.852 285.71 77.164L285.782 71.944C285.158 74.416 284.21 76.216 282.938 77.344C281.666 78.448 280.178 79 278.474 79C276.746 79 275.402 78.412 274.442 77.236C273.506 76.06 273.05 74.392 273.074 72.232L273.182 61.18H275.162L275.018 71.908C275.018 73.612 275.318 74.92 275.918 75.832C276.542 76.72 277.538 77.164 278.906 77.164C280.25 77.164 281.426 76.66 282.434 75.652C283.466 74.644 284.258 72.976 284.81 70.648C285.386 68.296 285.674 65.14 285.674 61.18H287.546V76.876C287.546 80.212 286.838 82.66 285.422 84.22C284.03 85.78 281.906 86.56 279.05 86.56ZM307.947 61.18V79H305.931L306.075 74.176C305.451 75.712 304.539 76.948 303.339 77.884C302.163 78.82 300.819 79.288 299.307 79.288C297.843 79.288 296.595 78.94 295.563 78.244C294.555 77.524 293.787 76.54 293.259 75.292C292.731 74.02 292.467 72.568 292.467 70.936C292.467 68.944 292.803 67.192 293.475 65.68C294.171 64.168 295.143 62.992 296.391 62.152C297.663 61.288 299.139 60.856 300.819 60.856C302.043 60.856 303.123 61.156 304.059 61.756C304.995 62.332 305.667 63.076 306.075 63.988L306.435 61.18H307.947ZM300.855 62.656C298.935 62.656 297.399 63.4 296.247 64.888C295.095 66.352 294.519 68.308 294.519 70.756C294.519 72.844 294.963 74.488 295.851 75.688C296.739 76.864 297.963 77.452 299.523 77.452C300.771 77.452 301.887 77.08 302.871 76.336C303.855 75.568 304.623 74.524 305.175 73.204C305.727 71.86 306.003 70.348 306.003 68.668C306.003 66.796 305.547 65.332 304.635 64.276C303.723 63.196 302.463 62.656 300.855 62.656Z" fill="white"/>
<path d="M33.3056 150V132.96H37.3616C43.9056 132.96 47.1776 135.768 47.1776 141.384C47.1776 144.12 46.3776 146.24 44.7776 147.744C43.1776 149.248 40.8976 150 37.9376 150H33.3056ZM34.6976 148.8H37.8416C40.4656 148.8 42.4416 148.184 43.7696 146.952C45.1136 145.704 45.7856 143.872 45.7856 141.456C45.7856 139.008 45.1136 137.184 43.7696 135.984C42.4256 134.768 40.3616 134.16 37.5776 134.16H34.6976V148.8ZM55.8071 150.192C54.0151 150.192 52.6151 149.664 51.6071 148.608C50.5991 147.552 50.0951 146.088 50.0951 144.216C50.0951 142.984 50.3351 141.896 50.8151 140.952C51.2951 140.008 51.9511 139.264 52.7831 138.72C53.6151 138.176 54.5671 137.904 55.6391 137.904C56.6631 137.904 57.5511 138.144 58.3031 138.624C59.0551 139.104 59.6071 139.832 59.9591 140.808C60.3271 141.784 60.4311 143.032 60.2711 144.552H51.4391C51.4711 145.992 51.8711 147.088 52.6391 147.84C53.4071 148.592 54.4871 148.968 55.8791 148.968C56.5991 148.968 57.2631 148.824 57.8711 148.536C58.4951 148.248 59.0151 147.784 59.4311 147.144L60.3191 147.888C59.8391 148.64 59.2151 149.216 58.4471 149.616C57.6951 150 56.8151 150.192 55.8071 150.192ZM55.6631 139.008C54.8791 139.008 54.1831 139.208 53.5751 139.608C52.9671 139.992 52.4791 140.52 52.1111 141.192C51.7431 141.864 51.5271 142.616 51.4631 143.448H59.0951C59.1911 141.864 58.9031 140.728 58.2311 140.04C57.5591 139.352 56.7031 139.008 55.6631 139.008ZM71.2273 138.12H72.5473L67.8193 150H66.0673L62.1793 138.12H63.5713L67.0033 148.896L71.2273 138.12ZM79.2407 137.904C80.8247 137.904 82.0727 138.44 82.9847 139.512C83.9127 140.568 84.3767 142.008 84.3767 143.832C84.3767 145.032 84.1447 146.112 83.6807 147.072C83.2167 148.032 82.5767 148.792 81.7607 149.352C80.9447 149.912 80.0087 150.192 78.9527 150.192C77.3047 150.192 76.0167 149.664 75.0887 148.608C74.1607 147.536 73.6967 146.08 73.6967 144.24C73.6967 143.04 73.9207 141.96 74.3687 141C74.8327 140.04 75.4807 139.288 76.3127 138.744C77.1447 138.184 78.1207 137.904 79.2407 137.904ZM78.9527 148.968C79.7527 148.968 80.4567 148.752 81.0647 148.32C81.6727 147.888 82.1447 147.288 82.4807 146.52C82.8327 145.736 83.0087 144.84 83.0087 143.832C83.0087 142.312 82.6727 141.144 82.0007 140.328C81.3447 139.512 80.4327 139.104 79.2647 139.104C78.4167 139.104 77.6727 139.328 77.0327 139.776C76.4087 140.208 75.9207 140.816 75.5687 141.6C75.2327 142.368 75.0647 143.248 75.0647 144.24C75.0647 145.76 75.4007 146.928 76.0727 147.744C76.7607 148.56 77.7207 148.968 78.9527 148.968ZM91.7606 150.192C90.4646 150.192 89.4966 149.84 88.8566 149.136C88.2326 148.432 87.9286 147.496 87.9446 146.328L88.0166 139.248H85.8806V138.12H88.0406L88.0646 135.624H89.3606L89.3366 138.12H93.5846V139.248H89.3366L89.2646 146.232C89.2486 147.08 89.4486 147.752 89.8646 148.248C90.2806 148.744 90.9286 148.992 91.8086 148.992C92.1926 148.992 92.5446 148.944 92.8646 148.848C93.1846 148.736 93.5126 148.552 93.8486 148.296L94.3046 149.328C94.0006 149.632 93.6166 149.856 93.1526 150C92.7046 150.128 92.2406 150.192 91.7606 150.192ZM97.317 138.12V150H96.021V138.12H97.317ZM96.693 135.12C96.405 135.12 96.173 135.024 95.997 134.832C95.821 134.64 95.733 134.416 95.733 134.16C95.733 133.904 95.821 133.68 95.997 133.488C96.189 133.296 96.421 133.2 96.693 133.2C96.997 133.2 97.229 133.296 97.389 133.488C97.565 133.68 97.653 133.904 97.653 134.16C97.653 134.416 97.565 134.64 97.389 134.832C97.229 135.024 96.997 135.12 96.693 135.12ZM106.147 137.904C107.731 137.904 108.979 138.44 109.891 139.512C110.819 140.568 111.283 142.008 111.283 143.832C111.283 145.032 111.051 146.112 110.587 147.072C110.123 148.032 109.483 148.792 108.667 149.352C107.851 149.912 106.915 150.192 105.859 150.192C104.211 150.192 102.923 149.664 101.995 148.608C101.067 147.536 100.603 146.08 100.603 144.24C100.603 143.04 100.827 141.96 101.275 141C101.739 140.04 102.387 139.288 103.219 138.744C104.051 138.184 105.027 137.904 106.147 137.904ZM105.859 148.968C106.659 148.968 107.363 148.752 107.971 148.32C108.579 147.888 109.051 147.288 109.387 146.52C109.739 145.736 109.915 144.84 109.915 143.832C109.915 142.312 109.579 141.144 108.907 140.328C108.251 139.512 107.339 139.104 106.171 139.104C105.323 139.104 104.579 139.328 103.939 139.776C103.315 140.208 102.827 140.816 102.475 141.6C102.139 142.368 101.971 143.248 101.971 144.24C101.971 145.76 102.307 146.928 102.979 147.744C103.667 148.56 104.627 148.968 105.859 148.968ZM114.56 150V138.12H115.88L115.736 142.776C116.136 141.144 116.76 139.928 117.608 139.128C118.456 138.312 119.472 137.904 120.656 137.904C121.84 137.904 122.744 138.312 123.368 139.128C124.008 139.944 124.32 141.128 124.304 142.68L124.256 150H122.96L123.008 142.872C123.024 141.624 122.816 140.688 122.384 140.064C121.952 139.44 121.28 139.128 120.368 139.128C119.488 139.128 118.704 139.472 118.016 140.16C117.344 140.848 116.808 141.984 116.408 143.568C116.024 145.152 115.832 147.296 115.832 150H114.56ZM131.662 150.192C130.206 150.192 129.086 149.888 128.302 149.28C127.518 148.672 127.07 147.792 126.958 146.64L128.158 146.376C128.27 147.304 128.606 147.992 129.166 148.44C129.726 148.872 130.558 149.088 131.662 149.088C132.59 149.088 133.302 148.88 133.798 148.464C134.294 148.048 134.542 147.52 134.542 146.88C134.542 146.272 134.294 145.832 133.798 145.56C133.318 145.288 132.566 145.048 131.542 144.84C130.326 144.584 129.374 144.224 128.686 143.76C127.998 143.28 127.654 142.496 127.654 141.408C127.654 140.752 127.83 140.168 128.182 139.656C128.534 139.128 129.014 138.712 129.622 138.408C130.23 138.088 130.934 137.928 131.734 137.928C132.79 137.928 133.654 138.192 134.326 138.72C135.014 139.232 135.438 139.968 135.598 140.928L134.446 141.216C134.206 139.76 133.302 139.032 131.734 139.032C130.902 139.032 130.23 139.248 129.718 139.68C129.206 140.112 128.95 140.68 128.95 141.384C128.95 142.04 129.174 142.536 129.622 142.872C130.086 143.208 130.846 143.488 131.902 143.712C132.766 143.904 133.486 144.12 134.062 144.36C134.654 144.584 135.094 144.888 135.382 145.272C135.686 145.656 135.838 146.176 135.838 146.832C135.854 147.456 135.686 148.024 135.334 148.536C134.982 149.048 134.486 149.456 133.846 149.76C133.222 150.048 132.494 150.192 131.662 150.192Z" fill="white"/>
<rect x="25" y="210" width="378" height="400" rx="12" fill="#34D399"/>
<rect x="25" y="637" width="378" height="184" rx="12" fill="#4B5563"/>
<path d="M56.5682 246.392V244.364H66.125V246.392H62.5625V256H60.1307V246.392H56.5682ZM70.331 256.17C69.4484 256.17 68.6851 255.983 68.0412 255.608C67.401 255.229 66.9067 254.703 66.5582 254.028C66.2098 253.35 66.0355 252.564 66.0355 251.67C66.0355 250.769 66.2098 249.981 66.5582 249.307C66.9067 248.629 67.401 248.102 68.0412 247.727C68.6851 247.348 69.4484 247.159 70.331 247.159C71.2135 247.159 71.9749 247.348 72.6151 247.727C73.259 248.102 73.7552 248.629 74.1037 249.307C74.4522 249.981 74.6264 250.769 74.6264 251.67C74.6264 252.564 74.4522 253.35 74.1037 254.028C73.7552 254.703 73.259 255.229 72.6151 255.608C71.9749 255.983 71.2135 256.17 70.331 256.17ZM70.3423 254.295C70.7438 254.295 71.0791 254.182 71.348 253.955C71.617 253.723 71.8196 253.409 71.956 253.011C72.0961 252.614 72.1662 252.161 72.1662 251.653C72.1662 251.146 72.0961 250.693 71.956 250.295C71.8196 249.898 71.617 249.583 71.348 249.352C71.0791 249.121 70.7438 249.006 70.3423 249.006C69.937 249.006 69.5961 249.121 69.3196 249.352C69.0469 249.583 68.8404 249.898 68.7003 250.295C68.5639 250.693 68.4957 251.146 68.4957 251.653C68.4957 252.161 68.5639 252.614 68.7003 253.011C68.8404 253.409 69.0469 253.723 69.3196 253.955C69.5961 254.182 69.937 254.295 70.3423 254.295ZM79.4162 256.142C78.7533 256.142 78.1529 255.972 77.6151 255.631C77.081 255.286 76.6567 254.78 76.3423 254.114C76.0317 253.443 75.8764 252.621 75.8764 251.648C75.8764 250.648 76.0374 249.816 76.3594 249.153C76.6813 248.487 77.1094 247.989 77.6435 247.659C78.1813 247.326 78.7704 247.159 79.4105 247.159C79.8991 247.159 80.3063 247.242 80.6321 247.409C80.9616 247.572 81.2268 247.777 81.4276 248.023C81.6321 248.265 81.7874 248.504 81.8935 248.739H81.9673V244.364H84.3821V256H81.9957V254.602H81.8935C81.7798 254.845 81.6188 255.085 81.4105 255.324C81.206 255.559 80.9389 255.754 80.6094 255.909C80.2836 256.064 79.8859 256.142 79.4162 256.142ZM80.1832 254.216C80.5734 254.216 80.9029 254.11 81.1719 253.898C81.4446 253.682 81.6529 253.381 81.7969 252.994C81.9446 252.608 82.0185 252.155 82.0185 251.636C82.0185 251.117 81.9465 250.667 81.8026 250.284C81.6586 249.902 81.4503 249.606 81.1776 249.398C80.9048 249.189 80.5734 249.085 80.1832 249.085C79.7855 249.085 79.4503 249.193 79.1776 249.409C78.9048 249.625 78.6984 249.924 78.5582 250.307C78.4181 250.689 78.348 251.133 78.348 251.636C78.348 252.144 78.4181 252.593 78.5582 252.983C78.7022 253.369 78.9086 253.672 79.1776 253.892C79.4503 254.108 79.7855 254.216 80.1832 254.216ZM88.8608 256.165C88.304 256.165 87.8078 256.068 87.3722 255.875C86.9366 255.678 86.5919 255.388 86.3381 255.006C86.0881 254.619 85.9631 254.138 85.9631 253.562C85.9631 253.078 86.0521 252.67 86.2301 252.341C86.4081 252.011 86.6506 251.746 86.9574 251.545C87.2642 251.345 87.6127 251.193 88.0028 251.091C88.3968 250.989 88.8097 250.917 89.2415 250.875C89.7491 250.822 90.1581 250.773 90.4688 250.727C90.7794 250.678 91.0047 250.606 91.1449 250.511C91.285 250.417 91.3551 250.277 91.3551 250.091V250.057C91.3551 249.697 91.2415 249.419 91.0142 249.222C90.7907 249.025 90.4725 248.926 90.0597 248.926C89.6241 248.926 89.2775 249.023 89.0199 249.216C88.7623 249.405 88.5919 249.644 88.5085 249.932L86.2699 249.75C86.3835 249.22 86.607 248.761 86.9403 248.375C87.2737 247.985 87.7036 247.686 88.2301 247.477C88.7604 247.265 89.3741 247.159 90.071 247.159C90.5559 247.159 91.0199 247.216 91.4631 247.33C91.91 247.443 92.3059 247.619 92.6506 247.858C92.9991 248.097 93.2737 248.403 93.4744 248.778C93.6752 249.15 93.7756 249.595 93.7756 250.114V256H91.4801V254.79H91.4119C91.2718 255.062 91.0843 255.303 90.8494 255.511C90.6146 255.716 90.3324 255.877 90.0028 255.994C89.6733 256.108 89.2926 256.165 88.8608 256.165ZM89.554 254.494C89.91 254.494 90.2244 254.424 90.4972 254.284C90.7699 254.14 90.9839 253.947 91.1392 253.705C91.2945 253.462 91.3722 253.187 91.3722 252.881V251.955C91.2964 252.004 91.1922 252.049 91.0597 252.091C90.9309 252.129 90.785 252.165 90.6222 252.199C90.4593 252.229 90.2964 252.258 90.1335 252.284C89.9706 252.307 89.8229 252.328 89.6903 252.347C89.4063 252.388 89.1581 252.455 88.946 252.545C88.7339 252.636 88.5691 252.759 88.4517 252.915C88.3343 253.066 88.2756 253.256 88.2756 253.483C88.2756 253.812 88.3949 254.064 88.6335 254.239C88.8759 254.409 89.1828 254.494 89.554 254.494ZM96.8352 259.273C96.5284 259.273 96.2405 259.248 95.9716 259.199C95.7064 259.153 95.4867 259.095 95.3125 259.023L95.858 257.216C96.142 257.303 96.3977 257.35 96.625 257.358C96.8561 257.366 97.0549 257.313 97.2216 257.199C97.392 257.085 97.5303 256.892 97.6364 256.619L97.7784 256.25L94.6477 247.273H97.1932L99 253.682H99.0909L100.915 247.273H103.477L100.085 256.943C99.9223 257.413 99.7008 257.822 99.4205 258.17C99.1439 258.523 98.7936 258.794 98.3693 258.983C97.9451 259.176 97.4337 259.273 96.8352 259.273ZM106.8 254.409L106.737 255.034C106.688 255.534 106.593 256.032 106.453 256.528C106.317 257.028 106.173 257.481 106.021 257.886C105.874 258.292 105.754 258.61 105.663 258.841H104.095C104.152 258.617 104.23 258.305 104.328 257.903C104.427 257.506 104.519 257.059 104.607 256.562C104.694 256.066 104.749 255.561 104.771 255.045L104.8 254.409H106.8ZM116.709 256.256C115.732 256.252 114.891 256.011 114.186 255.534C113.485 255.057 112.946 254.366 112.567 253.46C112.192 252.555 112.006 251.466 112.01 250.193C112.01 248.924 112.197 247.843 112.572 246.949C112.951 246.055 113.491 245.375 114.192 244.909C114.896 244.439 115.735 244.205 116.709 244.205C117.682 244.205 118.519 244.439 119.22 244.909C119.925 245.379 120.466 246.061 120.845 246.955C121.224 247.845 121.411 248.924 121.408 250.193C121.408 251.47 121.218 252.561 120.839 253.466C120.464 254.371 119.927 255.062 119.226 255.54C118.525 256.017 117.686 256.256 116.709 256.256ZM116.709 254.216C117.375 254.216 117.908 253.881 118.305 253.21C118.703 252.54 118.9 251.534 118.896 250.193C118.896 249.311 118.805 248.576 118.624 247.989C118.446 247.402 118.192 246.96 117.862 246.665C117.536 246.369 117.152 246.222 116.709 246.222C116.046 246.222 115.516 246.553 115.118 247.216C114.72 247.879 114.519 248.871 114.516 250.193C114.516 251.087 114.605 251.833 114.783 252.432C114.964 253.027 115.22 253.473 115.55 253.773C115.879 254.068 116.266 254.216 116.709 254.216ZM127.463 256.159C126.615 256.159 125.859 256.013 125.196 255.722C124.537 255.426 124.016 255.021 123.634 254.506C123.255 253.987 123.06 253.388 123.048 252.71H125.526C125.541 252.994 125.634 253.244 125.804 253.46C125.978 253.672 126.209 253.837 126.497 253.955C126.785 254.072 127.109 254.131 127.469 254.131C127.844 254.131 128.175 254.064 128.463 253.932C128.751 253.799 128.976 253.616 129.139 253.381C129.302 253.146 129.384 252.875 129.384 252.568C129.384 252.258 129.296 251.983 129.122 251.744C128.952 251.502 128.705 251.312 128.384 251.176C128.065 251.04 127.687 250.972 127.247 250.972H126.162V249.165H127.247C127.618 249.165 127.946 249.1 128.23 248.972C128.518 248.843 128.741 248.665 128.901 248.438C129.06 248.206 129.139 247.938 129.139 247.631C129.139 247.339 129.069 247.083 128.929 246.864C128.793 246.64 128.599 246.466 128.349 246.341C128.103 246.216 127.815 246.153 127.486 246.153C127.152 246.153 126.848 246.214 126.571 246.335C126.295 246.453 126.073 246.621 125.906 246.841C125.74 247.061 125.651 247.318 125.639 247.614H123.281C123.293 246.943 123.484 246.352 123.855 245.841C124.226 245.33 124.726 244.93 125.355 244.642C125.988 244.35 126.702 244.205 127.497 244.205C128.3 244.205 129.003 244.35 129.605 244.642C130.207 244.934 130.675 245.328 131.009 245.824C131.346 246.316 131.512 246.869 131.509 247.483C131.512 248.134 131.31 248.678 130.901 249.114C130.495 249.549 129.967 249.826 129.315 249.943V250.034C130.171 250.144 130.823 250.441 131.27 250.926C131.721 251.407 131.944 252.009 131.94 252.733C131.944 253.396 131.753 253.985 131.366 254.5C130.984 255.015 130.455 255.42 129.781 255.716C129.107 256.011 128.334 256.159 127.463 256.159ZM148.173 250.182C148.173 251.451 147.933 252.53 147.452 253.42C146.974 254.311 146.323 254.991 145.497 255.46C144.675 255.926 143.751 256.159 142.724 256.159C141.69 256.159 140.762 255.924 139.94 255.455C139.118 254.985 138.469 254.305 137.991 253.415C137.514 252.525 137.276 251.447 137.276 250.182C137.276 248.913 137.514 247.833 137.991 246.943C138.469 246.053 139.118 245.375 139.94 244.909C140.762 244.439 141.69 244.205 142.724 244.205C143.751 244.205 144.675 244.439 145.497 244.909C146.323 245.375 146.974 246.053 147.452 246.943C147.933 247.833 148.173 248.913 148.173 250.182ZM145.679 250.182C145.679 249.36 145.556 248.667 145.31 248.102C145.067 247.538 144.724 247.11 144.281 246.818C143.838 246.527 143.319 246.381 142.724 246.381C142.13 246.381 141.611 246.527 141.168 246.818C140.724 247.11 140.38 247.538 140.134 248.102C139.891 248.667 139.77 249.36 139.77 250.182C139.77 251.004 139.891 251.697 140.134 252.261C140.38 252.826 140.724 253.254 141.168 253.545C141.611 253.837 142.13 253.983 142.724 253.983C143.319 253.983 143.838 253.837 144.281 253.545C144.724 253.254 145.067 252.826 145.31 252.261C145.556 251.697 145.679 251.004 145.679 250.182ZM153.893 256.17C153 256.17 152.231 255.981 151.587 255.602C150.946 255.22 150.454 254.689 150.109 254.011C149.768 253.333 149.598 252.553 149.598 251.67C149.598 250.777 149.77 249.992 150.115 249.318C150.464 248.64 150.958 248.112 151.598 247.733C152.238 247.35 153 247.159 153.882 247.159C154.643 247.159 155.31 247.297 155.882 247.574C156.454 247.85 156.907 248.239 157.24 248.739C157.573 249.239 157.757 249.826 157.791 250.5H155.507C155.443 250.064 155.272 249.714 154.996 249.449C154.723 249.18 154.365 249.045 153.922 249.045C153.547 249.045 153.219 249.148 152.939 249.352C152.662 249.553 152.446 249.847 152.291 250.233C152.136 250.619 152.058 251.087 152.058 251.636C152.058 252.193 152.134 252.667 152.286 253.057C152.441 253.447 152.659 253.744 152.939 253.949C153.219 254.153 153.547 254.256 153.922 254.256C154.198 254.256 154.446 254.199 154.666 254.085C154.89 253.972 155.073 253.807 155.217 253.591C155.365 253.371 155.462 253.108 155.507 252.801H157.791C157.753 253.468 157.571 254.055 157.246 254.562C156.924 255.066 156.479 255.46 155.911 255.744C155.342 256.028 154.67 256.17 153.893 256.17ZM163.983 247.273V249.091H158.727V247.273H163.983ZM159.92 245.182H162.341V253.318C162.341 253.542 162.375 253.716 162.443 253.841C162.511 253.962 162.606 254.047 162.727 254.097C162.852 254.146 162.996 254.17 163.159 254.17C163.273 254.17 163.386 254.161 163.5 254.142C163.614 254.119 163.701 254.102 163.761 254.091L164.142 255.892C164.021 255.93 163.85 255.973 163.631 256.023C163.411 256.076 163.144 256.108 162.83 256.119C162.246 256.142 161.735 256.064 161.295 255.886C160.86 255.708 160.521 255.432 160.278 255.057C160.036 254.682 159.917 254.208 159.92 253.636V245.182Z" fill="white"/>
<path d="M114.932 578V563.455H119.626C120.659 563.455 121.52 563.653 122.212 564.051C122.908 564.444 123.431 564.979 123.781 565.656C124.136 566.333 124.314 567.096 124.314 567.943C124.314 568.791 124.139 569.555 123.788 570.237C123.438 570.914 122.917 571.452 122.226 571.849C121.535 572.242 120.675 572.439 119.648 572.439H115.955V571.246H119.612C120.375 571.246 121.007 571.104 121.509 570.82C122.01 570.531 122.384 570.138 122.631 569.641C122.882 569.143 123.007 568.578 123.007 567.943C123.007 567.309 122.882 566.743 122.631 566.246C122.384 565.749 122.008 565.358 121.501 565.074C121 564.79 120.363 564.648 119.591 564.648H116.26V578H114.932ZM130.216 578.249C129.558 578.249 128.956 578.121 128.412 577.865C127.867 577.605 127.434 577.231 127.112 576.743C126.79 576.25 126.629 575.654 126.629 574.953C126.629 574.413 126.731 573.959 126.935 573.589C127.138 573.22 127.427 572.917 127.801 572.68C128.175 572.444 128.618 572.257 129.129 572.119C129.641 571.982 130.204 571.875 130.82 571.8C131.43 571.724 131.946 571.658 132.368 571.601C132.794 571.544 133.118 571.454 133.341 571.331C133.563 571.208 133.675 571.009 133.675 570.734V570.479C133.675 569.735 133.452 569.151 133.007 568.724C132.567 568.294 131.932 568.078 131.104 568.078C130.318 568.078 129.676 568.251 129.179 568.597C128.687 568.942 128.341 569.349 128.142 569.818L126.942 569.385C127.188 568.788 127.529 568.312 127.964 567.957C128.4 567.598 128.888 567.339 129.428 567.183C129.967 567.022 130.514 566.942 131.068 566.942C131.485 566.942 131.918 566.996 132.368 567.105C132.822 567.214 133.244 567.403 133.632 567.673C134.02 567.938 134.335 568.31 134.577 568.788C134.818 569.262 134.939 569.863 134.939 570.592V578H133.675V576.274H133.597C133.445 576.596 133.22 576.909 132.922 577.212C132.624 577.515 132.25 577.763 131.8 577.957C131.35 578.152 130.822 578.249 130.216 578.249ZM130.386 577.091C131.059 577.091 131.641 576.942 132.134 576.643C132.626 576.345 133.005 575.95 133.27 575.457C133.54 574.96 133.675 574.413 133.675 573.817V572.24C133.58 572.33 133.421 572.411 133.199 572.482C132.981 572.553 132.728 572.616 132.439 572.673C132.155 572.725 131.871 572.77 131.587 572.808C131.303 572.846 131.047 572.879 130.82 572.908C130.204 572.983 129.679 573.102 129.243 573.263C128.807 573.424 128.473 573.646 128.241 573.93C128.009 574.21 127.893 574.57 127.893 575.01C127.893 575.673 128.13 576.187 128.604 576.551C129.077 576.911 129.671 577.091 130.386 577.091ZM145.631 569.484L144.474 569.811C144.36 569.484 144.199 569.188 143.991 568.923C143.782 568.658 143.51 568.447 143.174 568.291C142.843 568.135 142.431 568.057 141.938 568.057C141.2 568.057 140.594 568.232 140.12 568.582C139.647 568.933 139.41 569.385 139.41 569.939C139.41 570.408 139.571 570.789 139.893 571.082C140.219 571.371 140.721 571.601 141.398 571.771L143.046 572.176C143.96 572.399 144.644 572.751 145.099 573.234C145.558 573.717 145.788 574.323 145.788 575.053C145.788 575.668 145.617 576.215 145.276 576.693C144.935 577.171 144.46 577.548 143.849 577.822C143.243 578.092 142.54 578.227 141.739 578.227C140.674 578.227 139.796 577.988 139.104 577.51C138.413 577.027 137.97 576.331 137.776 575.422L138.991 575.124C139.147 575.772 139.452 576.262 139.907 576.594C140.366 576.925 140.97 577.091 141.718 577.091C142.556 577.091 143.226 576.904 143.728 576.53C144.23 576.151 144.481 575.678 144.481 575.109C144.481 574.669 144.334 574.3 144.04 574.001C143.747 573.698 143.302 573.476 142.705 573.334L140.923 572.908C139.976 572.68 139.275 572.321 138.82 571.828C138.366 571.336 138.138 570.725 138.138 569.996C138.138 569.394 138.302 568.866 138.629 568.412C138.955 567.953 139.405 567.593 139.978 567.332C140.551 567.072 141.204 566.942 141.938 566.942C142.937 566.942 143.735 567.169 144.332 567.624C144.933 568.073 145.366 568.694 145.631 569.484ZM152.853 567.091V568.192H147.647V567.091H152.853ZM149.273 564.477H150.544V575.152C150.544 575.607 150.623 575.964 150.779 576.224C150.935 576.48 151.139 576.662 151.39 576.771C151.641 576.875 151.908 576.928 152.192 576.928C152.358 576.928 152.5 576.918 152.618 576.899C152.737 576.875 152.841 576.852 152.931 576.828L153.201 577.972C153.078 578.019 152.926 578.062 152.746 578.099C152.566 578.142 152.344 578.163 152.078 578.163C151.614 578.163 151.167 578.062 150.736 577.858C150.31 577.654 149.96 577.351 149.685 576.949C149.41 576.546 149.273 576.047 149.273 575.45V564.477ZM159.847 578.227C158.904 578.227 158.071 577.988 157.347 577.51C156.627 577.032 156.063 576.371 155.656 575.528C155.249 574.681 155.045 573.703 155.045 572.595C155.045 571.478 155.249 570.495 155.656 569.648C156.063 568.795 156.627 568.133 157.347 567.659C158.071 567.181 158.904 566.942 159.847 566.942C160.789 566.942 161.62 567.181 162.339 567.659C163.059 568.137 163.623 568.8 164.03 569.648C164.442 570.495 164.648 571.478 164.648 572.595C164.648 573.703 164.444 574.681 164.037 575.528C163.63 576.371 163.064 577.032 162.339 577.51C161.62 577.988 160.789 578.227 159.847 578.227ZM159.847 577.07C160.604 577.07 161.246 576.866 161.771 576.459C162.297 576.052 162.695 575.509 162.964 574.832C163.239 574.155 163.376 573.41 163.376 572.595C163.376 571.781 163.239 571.033 162.964 570.351C162.695 569.669 162.297 569.122 161.771 568.71C161.246 568.298 160.604 568.092 159.847 568.092C159.094 568.092 158.452 568.298 157.922 568.71C157.396 569.122 156.996 569.669 156.722 570.351C156.452 571.033 156.317 571.781 156.317 572.595C156.317 573.41 156.452 574.155 156.722 574.832C156.996 575.509 157.396 576.052 157.922 576.459C158.447 576.866 159.089 577.07 159.847 577.07ZM167.423 578V567.091H168.652V568.767H168.744C168.962 568.218 169.341 567.775 169.88 567.439C170.425 567.098 171.04 566.928 171.727 566.928C171.831 566.928 171.947 566.93 172.075 566.935C172.203 566.939 172.309 566.944 172.395 566.949V568.234C172.338 568.225 172.238 568.211 172.096 568.192C171.954 568.173 171.8 568.163 171.635 568.163C171.066 568.163 170.56 568.284 170.115 568.526C169.674 568.762 169.326 569.091 169.071 569.513C168.815 569.934 168.687 570.415 168.687 570.955V578H167.423ZM185.951 563.455H187.279V573.945C187.274 574.892 187.104 575.682 186.768 576.317C186.432 576.946 185.968 577.418 185.376 577.73C184.784 578.043 184.104 578.199 183.337 578.199C182.585 578.199 181.912 578.059 181.32 577.78C180.728 577.5 180.262 577.107 179.921 576.601C179.585 576.094 179.417 575.5 179.417 574.818H180.724C180.724 575.249 180.837 575.63 181.065 575.962C181.292 576.288 181.602 576.544 181.995 576.729C182.393 576.913 182.84 577.006 183.337 577.006C183.853 577.006 184.306 576.897 184.694 576.679C185.087 576.461 185.395 576.127 185.617 575.678C185.84 575.223 185.951 574.645 185.951 573.945V563.455ZM195.12 578.227C194.178 578.227 193.344 577.988 192.62 577.51C191.9 577.032 191.337 576.371 190.93 575.528C190.522 574.681 190.319 573.703 190.319 572.595C190.319 571.478 190.522 570.495 190.93 569.648C191.337 568.795 191.9 568.133 192.62 567.659C193.344 567.181 194.178 566.942 195.12 566.942C196.062 566.942 196.893 567.181 197.613 567.659C198.333 568.137 198.896 568.8 199.303 569.648C199.715 570.495 199.921 571.478 199.921 572.595C199.921 573.703 199.718 574.681 199.31 575.528C198.903 576.371 198.337 577.032 197.613 577.51C196.893 577.988 196.062 578.227 195.12 578.227ZM195.12 577.07C195.878 577.07 196.519 576.866 197.045 576.459C197.57 576.052 197.968 575.509 198.238 574.832C198.513 574.155 198.65 573.41 198.65 572.595C198.65 571.781 198.513 571.033 198.238 570.351C197.968 569.669 197.57 569.122 197.045 568.71C196.519 568.298 195.878 568.092 195.12 568.092C194.367 568.092 193.726 568.298 193.195 568.71C192.67 569.122 192.27 569.669 191.995 570.351C191.725 571.033 191.59 571.781 191.59 572.595C191.59 573.41 191.725 574.155 191.995 574.832C192.27 575.509 192.67 576.052 193.195 576.459C193.721 576.866 194.362 577.07 195.12 577.07ZM203.961 571.182V578H202.696V563.455H203.961V568.803H204.074C204.33 568.239 204.725 567.789 205.26 567.453C205.8 567.117 206.482 566.949 207.306 566.949C208.044 566.949 208.693 567.1 209.252 567.403C209.81 567.706 210.246 568.154 210.559 568.746C210.871 569.338 211.027 570.067 211.027 570.933V578H209.756V571.011C209.756 570.112 209.505 569.404 209.003 568.888C208.506 568.367 207.834 568.107 206.986 568.107C206.404 568.107 205.885 568.23 205.431 568.476C204.976 568.722 204.616 569.077 204.351 569.541C204.091 570 203.961 570.547 203.961 571.182ZM215.621 571.182V578H214.357V567.091H215.585V568.803H215.699C215.955 568.244 216.352 567.796 216.892 567.46C217.437 567.119 218.109 566.949 218.909 566.949C219.643 566.949 220.287 567.103 220.841 567.411C221.4 567.714 221.833 568.161 222.141 568.753C222.453 569.345 222.609 570.071 222.609 570.933V578H221.345V571.011C221.345 570.116 221.094 569.409 220.592 568.888C220.095 568.367 219.428 568.107 218.589 568.107C218.017 568.107 217.508 568.23 217.062 568.476C216.617 568.722 216.265 569.077 216.004 569.541C215.749 570 215.621 570.547 215.621 571.182ZM236.088 578H231.826V563.455H236.343C237.731 563.455 238.917 563.743 239.902 564.321C240.891 564.899 241.649 565.727 242.174 566.807C242.7 567.886 242.963 569.181 242.963 570.692C242.963 572.216 242.693 573.526 242.153 574.619C241.618 575.708 240.837 576.544 239.809 577.126C238.787 577.709 237.546 578 236.088 578ZM233.154 576.807H236.01C237.26 576.807 238.306 576.561 239.149 576.068C239.992 575.576 240.624 574.873 241.045 573.959C241.467 573.045 241.677 571.956 241.677 570.692C241.672 569.437 241.464 568.357 241.052 567.453C240.645 566.549 240.039 565.855 239.234 565.372C238.434 564.889 237.444 564.648 236.265 564.648H233.154V576.807ZM250.159 578.227C249.217 578.227 248.384 577.988 247.659 577.51C246.939 577.032 246.376 576.371 245.969 575.528C245.562 574.681 245.358 573.703 245.358 572.595C245.358 571.478 245.562 570.495 245.969 569.648C246.376 568.795 246.939 568.133 247.659 567.659C248.384 567.181 249.217 566.942 250.159 566.942C251.101 566.942 251.932 567.181 252.652 567.659C253.372 568.137 253.935 568.8 254.342 569.648C254.754 570.495 254.96 571.478 254.96 572.595C254.96 573.703 254.757 574.681 254.349 575.528C253.942 576.371 253.376 577.032 252.652 577.51C251.932 577.988 251.101 578.227 250.159 578.227ZM250.159 577.07C250.917 577.07 251.558 576.866 252.084 576.459C252.609 576.052 253.007 575.509 253.277 574.832C253.552 574.155 253.689 573.41 253.689 572.595C253.689 571.781 253.552 571.033 253.277 570.351C253.007 569.669 252.609 569.122 252.084 568.71C251.558 568.298 250.917 568.092 250.159 568.092C249.406 568.092 248.765 568.298 248.234 568.71C247.709 569.122 247.309 569.669 247.034 570.351C246.764 571.033 246.629 571.781 246.629 572.595C246.629 573.41 246.764 574.155 247.034 574.832C247.309 575.509 247.709 576.052 248.234 576.459C248.76 576.866 249.402 577.07 250.159 577.07ZM262.146 578.227C261.128 578.227 260.247 577.991 259.504 577.517C258.761 577.039 258.185 576.378 257.778 575.536C257.376 574.688 257.174 573.713 257.174 572.609C257.174 571.511 257.376 570.536 257.778 569.683C258.185 568.826 258.746 568.156 259.461 567.673C260.181 567.186 261.012 566.942 261.954 566.942C262.546 566.942 263.117 567.051 263.666 567.268C264.215 567.482 264.708 567.811 265.143 568.256C265.583 568.696 265.931 569.252 266.187 569.925C266.443 570.592 266.571 571.383 266.571 572.297V572.922H258.048V571.807H265.278C265.278 571.106 265.136 570.476 264.852 569.918C264.573 569.354 264.182 568.909 263.68 568.582C263.183 568.256 262.608 568.092 261.954 568.092C261.263 568.092 260.654 568.277 260.129 568.646C259.603 569.016 259.191 569.503 258.893 570.109C258.6 570.715 258.45 571.378 258.446 572.098V572.766C258.446 573.632 258.595 574.39 258.893 575.038C259.196 575.682 259.625 576.182 260.179 576.537C260.733 576.892 261.388 577.07 262.146 577.07C262.662 577.07 263.114 576.989 263.502 576.828C263.895 576.667 264.225 576.452 264.49 576.182C264.76 575.907 264.963 575.607 265.1 575.28L266.301 575.67C266.135 576.13 265.863 576.554 265.484 576.942C265.11 577.33 264.641 577.643 264.078 577.879C263.519 578.111 262.875 578.227 262.146 578.227Z" fill="white"/>
<path d="M73.4545 291.25C73.2955 290.697 73.072 290.208 72.7841 289.784C72.4962 289.352 72.1439 288.989 71.7273 288.693C71.3182 288.39 70.8485 288.159 70.3182 288C69.7955 287.841 69.2159 287.761 68.5795 287.761C67.3902 287.761 66.3447 288.057 65.4432 288.648C64.5492 289.239 63.8523 290.098 63.3523 291.227C62.8523 292.348 62.6023 293.72 62.6023 295.341C62.6023 296.962 62.8485 298.341 63.3409 299.477C63.8333 300.614 64.5303 301.481 65.4318 302.08C66.3333 302.67 67.3977 302.966 68.625 302.966C69.7386 302.966 70.6894 302.769 71.4773 302.375C72.2727 301.973 72.8788 301.409 73.2955 300.682C73.7197 299.955 73.9318 299.095 73.9318 298.102L74.9318 298.25H68.9318V294.545H78.6705V297.477C78.6705 299.523 78.2386 301.28 77.375 302.75C76.5114 304.212 75.322 305.341 73.8068 306.136C72.2917 306.924 70.5568 307.318 68.6023 307.318C66.4205 307.318 64.5038 306.837 62.8523 305.875C61.2008 304.905 59.9129 303.53 58.9886 301.75C58.072 299.962 57.6136 297.841 57.6136 295.386C57.6136 293.5 57.8864 291.818 58.4318 290.341C58.9848 288.856 59.7576 287.598 60.75 286.568C61.7424 285.538 62.8977 284.754 64.2159 284.216C65.5341 283.678 66.9621 283.409 68.5 283.409C69.8182 283.409 71.0455 283.602 72.1818 283.989C73.3182 284.367 74.3258 284.905 75.2045 285.602C76.0909 286.299 76.8144 287.129 77.375 288.091C77.9356 289.045 78.2955 290.098 78.4545 291.25H73.4545ZM90.2301 307.341C88.4347 307.341 86.8892 306.977 85.5938 306.25C84.3059 305.515 83.3134 304.477 82.6165 303.136C81.9195 301.788 81.571 300.193 81.571 298.352C81.571 296.557 81.9195 294.981 82.6165 293.625C83.3134 292.269 84.2945 291.212 85.5597 290.455C86.8324 289.697 88.3248 289.318 90.0369 289.318C91.1884 289.318 92.2604 289.504 93.2528 289.875C94.2528 290.239 95.1241 290.788 95.8665 291.523C96.6165 292.258 97.1998 293.182 97.6165 294.295C98.0331 295.402 98.2415 296.697 98.2415 298.182V299.511H83.5028V296.511H93.6847C93.6847 295.814 93.5331 295.197 93.2301 294.659C92.9271 294.121 92.5066 293.701 91.9688 293.398C91.4384 293.087 90.821 292.932 90.1165 292.932C89.3816 292.932 88.7301 293.102 88.1619 293.443C87.6013 293.777 87.1619 294.227 86.8438 294.795C86.5256 295.356 86.3627 295.981 86.3551 296.67V299.523C86.3551 300.386 86.5142 301.133 86.8324 301.761C87.1581 302.39 87.6165 302.875 88.2074 303.216C88.7983 303.557 89.4991 303.727 90.3097 303.727C90.8475 303.727 91.34 303.652 91.7869 303.5C92.2339 303.348 92.6165 303.121 92.9347 302.818C93.2528 302.515 93.4953 302.144 93.6619 301.705L98.1392 302C97.9119 303.076 97.446 304.015 96.7415 304.818C96.0445 305.614 95.143 306.235 94.0369 306.682C92.9384 307.121 91.6695 307.341 90.2301 307.341ZM110.685 289.545V293.182H100.173V289.545H110.685ZM102.56 285.364H107.401V301.636C107.401 302.083 107.469 302.432 107.605 302.682C107.741 302.924 107.931 303.095 108.173 303.193C108.423 303.292 108.711 303.341 109.037 303.341C109.264 303.341 109.491 303.322 109.719 303.284C109.946 303.239 110.12 303.205 110.241 303.182L111.003 306.784C110.76 306.86 110.42 306.947 109.98 307.045C109.541 307.152 109.007 307.216 108.378 307.239C107.211 307.284 106.188 307.129 105.31 306.773C104.438 306.417 103.76 305.864 103.276 305.114C102.791 304.364 102.552 303.417 102.56 302.273V285.364ZM123.122 289.545V293.182H112.611V289.545H123.122ZM114.997 285.364H119.838V301.636C119.838 302.083 119.906 302.432 120.043 302.682C120.179 302.924 120.368 303.095 120.611 303.193C120.861 303.292 121.149 303.341 121.474 303.341C121.702 303.341 121.929 303.322 122.156 303.284C122.384 303.239 122.558 303.205 122.679 303.182L123.44 306.784C123.198 306.86 122.857 306.947 122.418 307.045C121.978 307.152 121.444 307.216 120.815 307.239C119.649 307.284 118.626 307.129 117.747 306.773C116.876 306.417 116.198 305.864 115.713 305.114C115.228 304.364 114.99 303.417 114.997 302.273V285.364ZM126.276 307V289.545H131.116V307H126.276ZM128.707 287.295C127.988 287.295 127.37 287.057 126.855 286.58C126.348 286.095 126.094 285.515 126.094 284.841C126.094 284.174 126.348 283.602 126.855 283.125C127.37 282.64 127.988 282.398 128.707 282.398C129.427 282.398 130.041 282.64 130.548 283.125C131.063 283.602 131.321 284.174 131.321 284.841C131.321 285.515 131.063 286.095 130.548 286.58C130.041 287.057 129.427 287.295 128.707 287.295ZM139.835 296.909V307H134.994V289.545H139.608V292.625H139.812C140.199 291.61 140.847 290.807 141.756 290.216C142.665 289.617 143.767 289.318 145.062 289.318C146.275 289.318 147.331 289.583 148.233 290.114C149.134 290.644 149.835 291.402 150.335 292.386C150.835 293.364 151.085 294.53 151.085 295.886V307H146.244V296.75C146.252 295.682 145.979 294.848 145.426 294.25C144.873 293.644 144.112 293.341 143.142 293.341C142.491 293.341 141.915 293.481 141.415 293.761C140.922 294.042 140.536 294.451 140.256 294.989C139.983 295.519 139.843 296.159 139.835 296.909ZM162.764 313.909C161.196 313.909 159.851 313.693 158.73 313.261C157.616 312.837 156.73 312.258 156.071 311.523C155.412 310.788 154.984 309.962 154.787 309.045L159.264 308.443C159.401 308.792 159.616 309.117 159.912 309.42C160.207 309.723 160.598 309.966 161.082 310.148C161.575 310.337 162.173 310.432 162.878 310.432C163.931 310.432 164.798 310.174 165.48 309.659C166.17 309.152 166.514 308.299 166.514 307.102V303.909H166.31C166.098 304.394 165.779 304.852 165.355 305.284C164.931 305.716 164.385 306.068 163.719 306.341C163.052 306.614 162.257 306.75 161.332 306.75C160.022 306.75 158.829 306.447 157.753 305.841C156.685 305.227 155.832 304.292 155.196 303.034C154.567 301.769 154.253 300.17 154.253 298.239C154.253 296.261 154.575 294.61 155.219 293.284C155.863 291.958 156.719 290.966 157.787 290.307C158.863 289.648 160.041 289.318 161.321 289.318C162.298 289.318 163.116 289.485 163.776 289.818C164.435 290.144 164.965 290.553 165.366 291.045C165.776 291.53 166.09 292.008 166.31 292.477H166.491V289.545H171.298V307.17C171.298 308.655 170.935 309.898 170.207 310.898C169.48 311.898 168.473 312.648 167.185 313.148C165.904 313.655 164.431 313.909 162.764 313.909ZM162.866 303.114C163.647 303.114 164.306 302.92 164.844 302.534C165.389 302.14 165.806 301.58 166.094 300.852C166.389 300.117 166.537 299.239 166.537 298.216C166.537 297.193 166.393 296.307 166.105 295.557C165.817 294.799 165.401 294.212 164.855 293.795C164.31 293.379 163.647 293.17 162.866 293.17C162.071 293.17 161.401 293.386 160.855 293.818C160.31 294.242 159.897 294.833 159.616 295.591C159.336 296.348 159.196 297.223 159.196 298.216C159.196 299.223 159.336 300.095 159.616 300.83C159.904 301.557 160.317 302.121 160.855 302.523C161.401 302.917 162.071 303.114 162.866 303.114ZM191.841 289.545V293.182H181.33V289.545H191.841ZM183.716 285.364H188.557V301.636C188.557 302.083 188.625 302.432 188.761 302.682C188.898 302.924 189.087 303.095 189.33 303.193C189.58 303.292 189.867 303.341 190.193 303.341C190.42 303.341 190.648 303.322 190.875 303.284C191.102 303.239 191.277 303.205 191.398 303.182L192.159 306.784C191.917 306.86 191.576 306.947 191.136 307.045C190.697 307.152 190.163 307.216 189.534 307.239C188.367 307.284 187.345 307.129 186.466 306.773C185.595 306.417 184.917 305.864 184.432 305.114C183.947 304.364 183.708 303.417 183.716 302.273V285.364ZM202.693 307.341C200.928 307.341 199.402 306.966 198.114 306.216C196.833 305.458 195.845 304.405 195.148 303.057C194.451 301.701 194.102 300.129 194.102 298.341C194.102 296.538 194.451 294.962 195.148 293.614C195.845 292.258 196.833 291.205 198.114 290.455C199.402 289.697 200.928 289.318 202.693 289.318C204.458 289.318 205.981 289.697 207.261 290.455C208.549 291.205 209.542 292.258 210.239 293.614C210.936 294.962 211.284 296.538 211.284 298.341C211.284 300.129 210.936 301.701 210.239 303.057C209.542 304.405 208.549 305.458 207.261 306.216C205.981 306.966 204.458 307.341 202.693 307.341ZM202.716 303.591C203.519 303.591 204.189 303.364 204.727 302.909C205.265 302.447 205.67 301.818 205.943 301.023C206.223 300.227 206.364 299.322 206.364 298.307C206.364 297.292 206.223 296.386 205.943 295.591C205.67 294.795 205.265 294.167 204.727 293.705C204.189 293.242 203.519 293.011 202.716 293.011C201.905 293.011 201.223 293.242 200.67 293.705C200.125 294.167 199.712 294.795 199.432 295.591C199.159 296.386 199.023 297.292 199.023 298.307C199.023 299.322 199.159 300.227 199.432 301.023C199.712 301.818 200.125 302.447 200.67 302.909C201.223 303.364 201.905 303.591 202.716 303.591ZM221.929 307V283.727H226.849V293.989H227.156L235.531 283.727H241.429L232.793 294.148L241.531 307H235.645L229.27 297.432L226.849 300.386V307H221.929ZM248.741 296.909V307H243.901V289.545H248.514V292.625H248.719C249.105 291.61 249.753 290.807 250.662 290.216C251.571 289.617 252.673 289.318 253.969 289.318C255.181 289.318 256.238 289.583 257.139 290.114C258.041 290.644 258.741 291.402 259.241 292.386C259.741 293.364 259.991 294.53 259.991 295.886V307H255.151V296.75C255.158 295.682 254.885 294.848 254.332 294.25C253.779 293.644 253.018 293.341 252.048 293.341C251.397 293.341 250.821 293.481 250.321 293.761C249.829 294.042 249.442 294.451 249.162 294.989C248.889 295.519 248.749 296.159 248.741 296.909ZM271.693 307.341C269.928 307.341 268.402 306.966 267.114 306.216C265.833 305.458 264.845 304.405 264.148 303.057C263.451 301.701 263.102 300.129 263.102 298.341C263.102 296.538 263.451 294.962 264.148 293.614C264.845 292.258 265.833 291.205 267.114 290.455C268.402 289.697 269.928 289.318 271.693 289.318C273.458 289.318 274.981 289.697 276.261 290.455C277.549 291.205 278.542 292.258 279.239 293.614C279.936 294.962 280.284 296.538 280.284 298.341C280.284 300.129 279.936 301.701 279.239 303.057C278.542 304.405 277.549 305.458 276.261 306.216C274.981 306.966 273.458 307.341 271.693 307.341ZM271.716 303.591C272.519 303.591 273.189 303.364 273.727 302.909C274.265 302.447 274.67 301.818 274.943 301.023C275.223 300.227 275.364 299.322 275.364 298.307C275.364 297.292 275.223 296.386 274.943 295.591C274.67 294.795 274.265 294.167 273.727 293.705C273.189 293.242 272.519 293.011 271.716 293.011C270.905 293.011 270.223 293.242 269.67 293.705C269.125 294.167 268.712 294.795 268.432 295.591C268.159 296.386 268.023 297.292 268.023 298.307C268.023 299.322 268.159 300.227 268.432 301.023C268.712 301.818 269.125 302.447 269.67 302.909C270.223 303.364 270.905 303.591 271.716 303.591ZM286.438 307L281.688 289.545H286.585L289.29 301.273H289.449L292.267 289.545H297.074L299.938 301.205H300.085L302.744 289.545H307.631L302.892 307H297.767L294.767 296.023H294.551L291.551 307H286.438ZM56.6591 322.727H62.1705L67.4773 332.75H67.7045L73.0114 322.727H78.5227L70.0341 337.773V346H65.1477V337.773L56.6591 322.727ZM85.3494 346.341C83.5843 346.341 82.0578 345.966 80.7699 345.216C79.4896 344.458 78.5009 343.405 77.804 342.057C77.107 340.701 76.7585 339.129 76.7585 337.341C76.7585 335.538 77.107 333.962 77.804 332.614C78.5009 331.258 79.4896 330.205 80.7699 329.455C82.0578 328.697 83.5843 328.318 85.3494 328.318C87.1146 328.318 88.6373 328.697 89.9176 329.455C91.2055 330.205 92.1979 331.258 92.8949 332.614C93.5919 333.962 93.9403 335.538 93.9403 337.341C93.9403 339.129 93.5919 340.701 92.8949 342.057C92.1979 343.405 91.2055 344.458 89.9176 345.216C88.6373 345.966 87.1146 346.341 85.3494 346.341ZM85.3722 342.591C86.1752 342.591 86.8456 342.364 87.3835 341.909C87.9214 341.447 88.3267 340.818 88.5994 340.023C88.8797 339.227 89.0199 338.322 89.0199 337.307C89.0199 336.292 88.8797 335.386 88.5994 334.591C88.3267 333.795 87.9214 333.167 87.3835 332.705C86.8456 332.242 86.1752 332.011 85.3722 332.011C84.5616 332.011 83.8797 332.242 83.3267 332.705C82.7813 333.167 82.3684 333.795 82.0881 334.591C81.8153 335.386 81.679 336.292 81.679 337.307C81.679 338.322 81.8153 339.227 82.0881 340.023C82.3684 340.818 82.7813 341.447 83.3267 341.909C83.8797 342.364 84.5616 342.591 85.3722 342.591ZM108.281 338.568V328.545H113.122V346H108.474V342.83H108.293C107.899 343.852 107.243 344.674 106.327 345.295C105.418 345.917 104.308 346.227 102.997 346.227C101.83 346.227 100.804 345.962 99.9176 345.432C99.0313 344.902 98.3381 344.148 97.8381 343.17C97.3456 342.193 97.0956 341.023 97.0881 339.659V328.545H101.929V338.795C101.937 339.826 102.213 340.64 102.759 341.239C103.304 341.837 104.035 342.136 104.952 342.136C105.535 342.136 106.08 342.004 106.588 341.739C107.096 341.466 107.505 341.064 107.815 340.534C108.134 340.004 108.289 339.348 108.281 338.568ZM116.994 346V328.545H121.688V331.591H121.869C122.188 330.508 122.722 329.689 123.472 329.136C124.222 328.576 125.085 328.295 126.062 328.295C126.305 328.295 126.566 328.311 126.847 328.341C127.127 328.371 127.373 328.413 127.585 328.466V332.761C127.358 332.693 127.044 332.633 126.642 332.58C126.241 332.527 125.873 332.5 125.54 332.5C124.828 332.5 124.191 332.655 123.631 332.966C123.078 333.269 122.638 333.693 122.312 334.239C121.994 334.784 121.835 335.413 121.835 336.125V346H116.994ZM144.611 333.523L140.179 333.795C140.103 333.417 139.94 333.076 139.69 332.773C139.44 332.462 139.111 332.216 138.702 332.034C138.3 331.845 137.819 331.75 137.259 331.75C136.509 331.75 135.876 331.909 135.361 332.227C134.846 332.538 134.588 332.955 134.588 333.477C134.588 333.894 134.755 334.246 135.088 334.534C135.421 334.822 135.993 335.053 136.804 335.227L139.963 335.864C141.66 336.212 142.925 336.773 143.759 337.545C144.592 338.318 145.009 339.333 145.009 340.591C145.009 341.735 144.671 342.739 143.997 343.602C143.33 344.466 142.414 345.14 141.247 345.625C140.088 346.102 138.751 346.341 137.236 346.341C134.925 346.341 133.084 345.86 131.713 344.898C130.349 343.928 129.55 342.61 129.315 340.943L134.077 340.693C134.221 341.398 134.569 341.936 135.122 342.307C135.675 342.67 136.384 342.852 137.247 342.852C138.096 342.852 138.777 342.689 139.293 342.364C139.815 342.03 140.08 341.602 140.088 341.08C140.08 340.64 139.895 340.28 139.531 340C139.168 339.712 138.607 339.492 137.849 339.341L134.827 338.739C133.122 338.398 131.853 337.807 131.02 336.966C130.194 336.125 129.781 335.053 129.781 333.75C129.781 332.629 130.084 331.663 130.69 330.852C131.304 330.042 132.164 329.417 133.27 328.977C134.384 328.538 135.687 328.318 137.179 328.318C139.384 328.318 141.118 328.784 142.384 329.716C143.656 330.648 144.399 331.917 144.611 333.523ZM156.011 346.341C154.216 346.341 152.67 345.977 151.375 345.25C150.087 344.515 149.095 343.477 148.398 342.136C147.701 340.788 147.352 339.193 147.352 337.352C147.352 335.557 147.701 333.981 148.398 332.625C149.095 331.269 150.076 330.212 151.341 329.455C152.614 328.697 154.106 328.318 155.818 328.318C156.97 328.318 158.042 328.504 159.034 328.875C160.034 329.239 160.905 329.788 161.648 330.523C162.398 331.258 162.981 332.182 163.398 333.295C163.814 334.402 164.023 335.697 164.023 337.182V338.511H149.284V335.511H159.466C159.466 334.814 159.314 334.197 159.011 333.659C158.708 333.121 158.288 332.701 157.75 332.398C157.22 332.087 156.602 331.932 155.898 331.932C155.163 331.932 154.511 332.102 153.943 332.443C153.383 332.777 152.943 333.227 152.625 333.795C152.307 334.356 152.144 334.981 152.136 335.67V338.523C152.136 339.386 152.295 340.133 152.614 340.761C152.939 341.39 153.398 341.875 153.989 342.216C154.58 342.557 155.28 342.727 156.091 342.727C156.629 342.727 157.121 342.652 157.568 342.5C158.015 342.348 158.398 342.121 158.716 341.818C159.034 341.515 159.277 341.144 159.443 340.705L163.92 341C163.693 342.076 163.227 343.015 162.523 343.818C161.826 344.614 160.924 345.235 159.818 345.682C158.72 346.121 157.451 346.341 156.011 346.341ZM172.023 322.727V346H167.182V322.727H172.023ZM185.287 328.545V332.182H174.514V328.545H185.287ZM176.98 346V327.284C176.98 326.019 177.226 324.97 177.719 324.136C178.219 323.303 178.901 322.678 179.764 322.261C180.628 321.845 181.609 321.636 182.707 321.636C183.45 321.636 184.128 321.693 184.741 321.807C185.363 321.92 185.825 322.023 186.128 322.114L185.264 325.75C185.075 325.689 184.84 325.633 184.56 325.58C184.287 325.527 184.007 325.5 183.719 325.5C183.007 325.5 182.51 325.667 182.23 326C181.95 326.326 181.81 326.784 181.81 327.375V346H176.98Z" fill="white"/>
<circle cx="75" cy="571" r="24" fill="#D9D9D9"/>
<line y1="-0.5" x2="412" y2="-0.5" transform="matrix(-1 0 0 1 420.03 114.5)" stroke="#374151"/>
<path d="M299 879C299 875.817 297.736 872.765 295.485 870.515C293.235 868.264 290.183 867 287 867C283.817 867 280.765 868.264 278.515 870.515C276.264 872.765 275 875.817 275 879C275 893 269 897 269 897H305C305 897 299 893 299 879Z" stroke="#6B7280" stroke-width="2" stroke-linecap="round" stroke-linejoin="round"/>
<path d="M290.46 905C290.108 905.606 289.604 906.109 288.996 906.459C288.389 906.809 287.701 906.993 287 906.993C286.299 906.993 285.611 906.809 285.004 906.459C284.396 906.109 283.892 905.606 283.54 905" stroke="#6B7280" stroke-width="2" stroke-linecap="round" stroke-linejoin="round"/>
<rect width="412" height="917" transform="translate(8 8)" fill="#202020" fill-opacity="0.86"/>
</g>
<defs>
<filter id="filter0_f_0_1" x="0" y="0" width="428" height="933" filterUnits="userSpaceOnUse" color-interpolation-filters="sRGB">
<feFlood flood-opacity="0" result="BackgroundImageFix"/>
<feBlend mode="normal" in="SourceGraphic" in2="BackgroundImageFix" result="shape"/>
<feGaussianBlur stdDeviation="4" result="effect1_foregroundBlur_0_1"/>
</filter>
<clipPath id="clip0_0_1">
<rect width="412" height="917" fill="white" transform="translate(8 8)"/>
</clipPath>
</defs>
</svg>
